<svg version="1.2" xmlns="http://www.w3.org/2000/svg" viewBox="0 0 125 54" width="125" height="54"><style>.a{fill:#fff}</style><path  d="m12 1h102c5.5 0 10 4.5 10 10v32c0 5.5-4.5 10-10 10h-102c-5.5 0-10-4.5-10-10v-32c0-5.5 4.5-10 10-10z"/><path class="a" d="m29.9 24.6q1.2-2.2 3-3.3 1.7-1 4-1 3.1 0 4.8 2.2 1.7 2.1 1.7 6.2v12h-3.3v-11.9q0-2.9-1-4.3-1-1.4-3.1-1.4-2.6 0-4.1 1.7-1.4 1.7-1.4 4.6v11.3h-3.3v-11.9q0-2.9-1-4.3-1.1-1.4-3.2-1.4-2.5 0-4 1.7-1.4 1.7-1.4 4.6v11.3h-3.3v-19.9h3.3v3.1q1.1-1.9 2.7-2.7 1.5-0.9 3.7-0.9 2.1 0 3.7 1.1 1.5 1.1 2.2 3.2zm33.1-0.8v-10.8h3.3v27.7h-3.3v-3q-1 1.8-2.6 2.7-1.6 0.8-3.8 0.8-3.6 0-5.9-2.9-2.2-2.9-2.2-7.6 0-4.7 2.2-7.5 2.3-2.9 5.9-2.9 2.2 0 3.8 0.9 1.6 0.8 2.6 2.6zm-11.1 6.9q0 3.7 1.4 5.7 1.5 2.1 4.1 2.1 2.6 0 4.1-2.1 1.5-2 1.5-5.7 0-3.6-1.5-5.6-1.5-2.1-4.1-2.1-2.6 0-4.1 2.1-1.4 2-1.4 5.6zm38.2-0.8v1.6h-15.1q0.3 3.4 2.1 5.2 1.8 1.7 5.1 1.7 1.8 0 3.6-0.4 1.8-0.5 3.5-1.4v3.1q-1.7 0.7-3.6 1.1-1.8 0.4-3.7 0.4-4.8 0-7.6-2.8-2.8-2.7-2.8-7.5 0-4.9 2.7-7.7 2.6-2.9 7.1-2.9 4 0 6.3 2.6 2.4 2.6 2.4 7zm-15-0.9l11.7-0.1q0-2.6-1.5-4.2-1.5-1.6-3.9-1.6-2.7 0-4.4 1.5-1.6 1.6-1.9 4.4zm25.5 11.7l-7.5-19.9h3.5l6.2 16.7 6.3-16.7h3.4l-7.5 19.9z"/></svg>